<?xml version="1.0" encoding="UTF-8"?>
<svg width="144px" height="46px" viewBox="0 0 144 46" version="1.1" xmlns="http://www.w3.org/2000/svg" xmlns:xlink="http://www.w3.org/1999/xlink">
    <!-- Generator: Sketch 51.3 (57544) - http://www.bohemiancoding.com/sketch -->
    <title>淘车-logo</title>
    <desc>Created with Sketch.</desc>
    <defs>
        <polygon id="path-1" points="0 0.0925002653 62.2969505 0.0925002653 62.2969505 39.2865745 0 39.2865745"></polygon>
    </defs>
    <g id="Page-1" stroke="none" stroke-width="1" fill="none" fill-rule="evenodd">
        <g id="首页" transform="translate(-361.000000, -75.000000)">
            <g id="顶通">
                <g id="search&amp;city-bar" transform="translate(0.000000, 37.000000)">
                    <g id="taoche-logo-3" transform="translate(361.000000, 20.000000)">
                        <rect id="Rectangle" x="0" y="0" width="144" height="82"></rect>
                        <g id="Group-42" stroke-width="1" fill-rule="evenodd" transform="translate(0.000000, 18.000000)">
                            <path d="M97.2053774,26.405818 C97.2448361,26.1179825 97.3806556,25.1362424 97.3806556,25.1362424 L93.5888962,25.1362424 C93.5888962,25.1362424 93.4845955,25.8850541 93.4480241,26.1515369 C93.3516632,26.8466615 93.035994,27.2203963 92.3294677,27.2203963 L91.9092571,27.2203963 L92.4941594,23.0034042 L96.4437534,23.0034042 C97.885197,23.0034042 98.3743398,19.6679772 98.3743398,19.6679772 L92.9562346,19.6679772 L93.3961744,16.4962955 L98.0306406,16.4962955 L97.8563248,13.1613565 L89.1309113,13.1613565 C89.2978887,12.6215581 89.3970165,12.2610011 89.3970165,12.2610011 L84.5027008,12.2610011 L83.2447158,17.9663432 L86.6130165,17.9663432 C87.0191519,17.9663432 87.4618586,17.3364971 87.8729263,16.4962955 L88.4790015,16.4962955 L88.0390617,19.6679772 L82.6216782,19.6679772 L82.1597233,23.0034042 L87.5765053,23.0034042 L86.9929263,27.2203963 L86.5727158,27.2203963 C85.8681143,27.2203963 85.6550617,26.8466615 85.7514226,26.1515369 C85.7841444,25.915192 85.8918135,25.1362424 85.8918135,25.1362424 L82.0996932,25.1362424 C82.0996932,25.1362424 81.9633925,26.1179825 81.9239338,26.405818 C81.5857684,28.843208 82.5988211,30.1462159 84.9173774,30.1462159 L85.721588,30.1462159 L92.3707308,30.1462159 L93.1744602,30.1462159 C95.4927759,30.1462159 96.8668511,28.843208 97.2053774,26.405818" id="Fill-1" fill="#E60012"></path>
                            <path d="M93.7544902,5.05827958 L91.621197,5.05827958 C92.3541895,3.69426366 92.8505504,2.61869337 92.8505504,2.61869337 L86.4726857,2.61869337 L83.2965053,10.6693034 L87.0086256,10.6693034 C87.7559338,10.6693034 88.6972872,9.67877825 89.6043549,8.39321857 L92.5387308,8.39321857 C99.3387308,8.39321857 100.969287,10.9926456 100.09434,17.3030647 C99.9479338,18.3571602 99.2661895,23.2817225 99.0165654,25.0826775 C98.1596632,31.2655899 93.538791,32.6983008 93.538791,32.6983008 L95.5739188,33.9579931 C96.2894677,34.4009109 97.1676632,34.5053565 97.9514226,34.2032451 C99.9888361,33.4181947 103.680385,31.0704865 104.625708,24.2474785 C104.877137,22.4300515 105.545047,17.6124971 105.746911,16.1517225 C106.925498,7.64818939 102.800626,5.05827958 93.7544902,5.05827958" id="Fill-3" fill="#E60012"></path>
                            <path d="M78.5046015,12.8354886 L82.3308872,12.8354886 L80.241985,3.99397135 L73.6439699,3.99397135 C73.6439699,3.99397135 76.233203,12.8354886 78.5046015,12.8354886" id="Fill-5" fill="#E60012"></path>
                            <path d="M120.838833,8.84161485 L142.034863,8.84161485 C143.476066,8.84161485 143.964968,5.5061878 143.964968,5.5061878 L121.976156,5.5061878 C122.272577,4.63767851 122.598352,3.68217188 122.961299,2.61770504 L116.579585,2.61770504 C116.2176,3.67936552 115.890983,4.63511618 115.5936,5.5061878 L111.662412,5.5061878 L111.200938,8.84161485 L114.455916,8.84161485 C112.923164,13.3344849 112.661149,14.0984265 112.290382,15.1813178 C111.030713,18.8596095 112.216638,21.2531958 117.119615,21.2531958 L126.113059,21.2531958 L125.32942,26.9104637 L108.569359,26.9104637 L108.107765,30.2458907 L124.867344,30.2458907 L124.30542,34.3008456 L130.687014,34.3008456 L131.249059,30.2458907 L139.704758,30.2458907 C141.146322,30.2458907 141.635344,26.9104637 141.635344,26.9104637 L131.711014,26.9104637 L132.495615,21.2531958 L139.424938,21.2531958 C140.866502,21.2531958 141.355525,17.9182568 141.355525,17.9182568 L132.95745,17.9182568 L133.570021,13.4946918 L127.188307,13.4946918 L126.575014,17.9182568 L121.228367,17.9182568 C118.844126,17.9182568 118.112818,16.815965 118.871555,14.6018642 C119.138141,13.8227926 119.343254,13.2240605 120.838833,8.84161485" id="Fill-7" fill="#E60012"></path>
                            <path d="M75.3514105,18.9277066 C75.5867188,19.3194997 75.9961023,19.5426668 76.5025684,19.5427889 C77.6248541,19.5430329 79.449215,19.5427889 80.464794,19.5427889 C80.2990195,18.8895156 79.8694256,18.056635 79.4496962,17.2773194 C78.9059368,16.2671496 77.8673805,14.599192 77.4907188,14.2238711 L72.0838015,14.2238711 C72.3952602,14.4681469 73.9746887,16.4346775 74.7499068,17.9276642 C74.9325233,18.2793141 75.1894857,18.6579294 75.3514105,18.9277066" id="Fill-9" fill="#E60012"></path>
                            <path d="M76.5345564,21.5630796 L76.5201203,21.5630796 C75.8371729,21.5657639 75.3084511,22.0548037 74.9605414,22.6508515 C74.4810226,23.4721406 73.9751579,24.150183 73.2153383,25.3577745 C70.2052932,30.1395782 68.0902857,32.7299761 68.0902857,32.7299761 L75.7654737,32.7299761 C75.7654737,32.7299761 78.368782,28.1313183 79.6094436,24.7795411 C80.1201203,23.4014934 80.3745564,22.6235199 80.587609,21.5630796 L76.5345564,21.5630796 Z" id="Fill-11" fill="#E60012"></path>
                            <path d="M131.042562,41.7518329 C130.878833,42.9268462 129.808878,43.8780822 128.651344,43.8780822 C127.494773,43.8780822 126.687675,42.9268462 126.849841,41.7518329 C127.012367,40.5768196 128.083044,39.6255836 129.241059,39.6255836 C130.398592,39.6255836 131.204968,40.5768196 131.042562,41.7518329 M129.510412,37.6778435 C127.292066,37.6778435 125.24154,39.5017374 124.92972,41.7518329 C124.61742,44.0014403 126.163284,45.8257003 128.38175,45.8257003 C130.600457,45.8257003 132.650382,44.0014403 132.963284,41.7518329 C133.274141,39.5017374 131.728638,37.6778435 129.510412,37.6778435 M122.535735,43.8780822 C121.42548,43.8780822 120.659044,42.9268462 120.82145,41.7518329 C120.985179,40.5768196 122.016156,39.6247294 123.124608,39.6247294 C123.688217,39.6247294 124.1616,39.8713236 124.471615,40.2661671 L125.575014,38.4666764 C124.978803,37.972634 124.202863,37.6778435 123.315886,37.6778435 C121.098983,37.6778435 119.047134,39.5017374 118.735314,41.7518329 C118.424217,44.0014403 119.969841,45.8257003 122.188547,45.8257003 C123.075525,45.8257003 123.933149,45.5307878 124.666021,45.0367454 L124.060668,43.2371326 C123.641059,43.6324642 123.098502,43.8780822 122.535735,43.8780822 M141.174292,38.1099019 L139.816337,38.1099019 L139.350412,38.8515146 C138.807856,38.2980504 137.940126,38.1099019 137.107284,38.1099019 L136.085089,38.1099019 L136.124427,37.8236525 L134.039134,38.1513873 L132.999134,45.6545119 L135.040277,45.6545119 L135.916788,39.3206658 L136.348668,39.3206658 C137.842081,39.3206658 137.857961,40.5982944 137.746923,41.3974987 L137.156848,45.6545119 L139.197149,45.6545119 L139.861329,40.8568462 C139.951194,40.2129682 139.870953,39.7107507 139.678713,39.3206658 L140.414713,39.3206658 C141.908487,39.3206658 141.923645,40.5982944 141.812608,41.3974987 L141.159615,45.6545119 L143.263194,45.6545119 L143.928217,40.8568462 C144.227765,38.69387 142.64545,38.1099019 141.174292,38.1099019" id="Fill-13" fill="#E60012"></path>
                            <path d="M74.007194,42.1574382 L74.3287579,39.8340111 L76.3429534,39.8340111 L76.5533594,38.3112525 L74.5401263,38.3112525 L74.6909835,37.2215284 L72.2425023,37.6056345 L72.144818,38.3112525 L70.8597654,38.3112525 L70.6487579,39.8340111 L71.9338105,39.8340111 L71.5265925,42.7750828 C71.1843368,45.2423666 72.9890887,45.9074753 74.6684872,45.9074753 L75.0385323,45.9074753 L75.6614496,44.5269873 L75.6017805,44.5269873 C73.8994045,44.5269873 73.8809985,43.0696292 74.007194,42.1574382 M111.623916,39.372913 C112.458683,39.3058042 113.125991,39.9234488 113.324487,40.8403984 L109.656036,41.4067963 C109.90145,40.315974 110.711795,39.4463666 111.623916,39.372913 M111.342893,44.1305576 C110.507765,44.1986424 109.839976,43.5807538 109.641359,42.6635602 L115.307645,41.7889501 L115.495074,41.7606424 C115.510713,41.649608 115.524908,41.5384515 115.531886,41.4263188 C115.664818,39.1823241 113.960638,37.510096 111.724006,37.6911676 C109.487374,37.8710191 107.568938,39.8364515 107.436848,42.0797141 C107.303795,44.3212684 109.006292,45.9934966 111.243284,45.8120589 C112.766412,45.690287 114.141329,44.7380748 114.906322,43.4366531 L113.012668,42.892096 C112.636126,43.5850244 112.018382,44.0757724 111.342893,44.1305576 M82.1901714,41.6838944 C82.0278857,42.8589077 80.9561263,43.8106318 79.7990737,43.8106318 C78.6419008,43.8106318 77.8351639,42.8589077 77.9985323,41.6838944 C78.160818,40.5088812 79.2312541,39.5577671 80.388788,39.5577671 C81.5463218,39.5577671 82.3534195,40.5088812 82.1901714,41.6838944 M83.7825925,42.3890244 L84.8290887,37.7505894 L82.4323368,38.069295 C81.9214195,37.7787751 81.3230436,37.6101491 80.6593444,37.6101491 C78.4414797,37.6101491 76.3905925,39.434531 76.0773293,41.6838944 C75.7669534,43.9335019 77.3119759,45.7577618 79.5302015,45.7577618 C80.3548632,45.7577618 81.1524571,45.5009183 81.8499609,45.0683719 C82.2938707,45.4033056 82.9062015,45.5503347 83.5303218,45.5801066 L83.5326075,45.5771782 L84.1394045,44.2282923 C83.5743519,43.8235655 83.6499008,42.9798255 83.7825925,42.3890244 M90.7277955,41.6838944 C90.5650286,42.8589077 89.493991,43.8106318 88.3374195,43.8106318 C87.1794045,43.8106318 86.3723068,42.8589077 86.5360361,41.6838944 C86.6983218,40.5088812 87.7688782,39.5577671 88.9254496,39.5577671 C90.0839459,39.5577671 90.8910436,40.5088812 90.7277955,41.6838944 M89.1955248,37.6101491 C86.9771789,37.6101491 84.9267729,39.434531 84.6149534,41.6838944 C84.3034947,43.9335019 85.8486376,45.7577618 88.0668632,45.7577618 C90.2860511,45.7577618 92.3374195,43.9335019 92.648397,41.6838944 C92.9603368,39.434531 91.4147128,37.6101491 89.1955248,37.6101491 M104.228427,38.0419634 L102.768577,38.0419634 L103.02554,36.1862233 L100.940126,36.513104 L99.6831038,45.5869395 L101.723525,45.5869395 L102.600397,39.2533374 L103.469811,39.2533374 C104.963104,39.2533374 104.978623,40.530356 104.867705,41.3301703 L104.277991,45.5869395 L106.318292,45.5869395 L106.982833,40.7895178 C107.282863,38.6265416 105.699585,38.0419634 104.228427,38.0419634 M97.0281865,43.8106318 C95.9188932,43.8106318 95.151615,42.8589077 95.3142617,41.6838944 C95.4766677,40.5088812 96.5084872,39.557279 97.6180211,39.557279 C98.1811489,39.557279 98.654412,39.8036292 98.9644271,40.1984727 L100.067946,38.3987379 C99.4717353,37.9049395 98.6956752,37.6101491 97.8096602,37.6101491 C95.5908331,37.6101491 93.5385023,39.434531 93.2281263,41.6838944 C92.9163068,43.9335019 94.4626526,45.7577618 96.6806376,45.7577618 C97.5674947,45.7577618 98.4256,45.4628493 99.157991,44.9688069 L98.5534797,43.1691942 C98.133991,43.5645257 97.5913143,43.8106318 97.0281865,43.8106318 M117.028307,43.0514488 C116.292186,43.0514488 115.610202,43.6581119 115.507104,44.4050934 C115.403886,45.1520748 115.91757,45.7577618 116.654051,45.7577618 C117.390653,45.7577618 118.072036,45.1520748 118.174893,44.4050934 C118.278472,43.6581119 117.764788,43.0514488 117.028307,43.0514488" id="Fill-15" fill="#E60012"></path>
                            <path d="M26.7143699,1.25517772 C12.2112722,1.25517772 12.751182,15.1957401 10.1288662,15.1957401 C5.21325714,15.1957401 1.45024962,19.120626 1.1424,24.1687905 C0.834550376,29.2170769 3.37686617,33.5510822 9.81993383,35.7820212 C16.3372271,38.0385836 21.5585203,38.1828064 27.9153323,38.1828064 L53.041588,38.1828064 C58.0756932,38.1828064 64.2670917,28.957061 59.1461293,21.9300424 C51.8986105,11.9847692 41.3050466,20.5472361 41.3050466,16.1858992 C41.3050466,11.4253263 40.9383699,1.25517772 26.7143699,1.25517772" id="Fill-17" fill="#FEFEFE"></path>
                            <g id="Group-21" transform="translate(0.000000, 0.029528)">
                                <mask id="mask-2" fill="white">
                                    <use xlink:href="#path-1"></use>
                                </mask>
                                <g id="Clip-20"></g>
                                <path d="M26.7143098,2.35894589 C17.2881444,2.35894589 14.7970767,8.52977878 13.1489564,12.6131634 C12.3174376,14.67267 11.661197,16.2995082 10.1286857,16.2995082 C5.91635489,16.2995082 2.53277594,19.7000918 2.25728722,24.2091899 C1.95557293,29.1596196 4.69542256,32.7804419 10.1810165,34.6802297 C16.4550617,36.852235 21.4889263,37.0201289 27.9156331,37.0201289 L53.0415278,37.0201289 C55.1714526,37.0201289 57.8741293,34.6718106 59.1949113,31.6738796 C60.0798436,29.6657416 61.0771368,25.7453703 57.8162647,22.0517045 C53.6122346,17.2900334 48.8429113,17.9697841 45.3610466,18.467731 C43.4477835,18.7403146 41.9388511,18.9555507 40.9562346,18.0902138 C40.4461594,17.6402191 40.1875128,16.9897523 40.1875128,16.1565056 C40.1875128,12.027731 40.1875128,2.35894589 26.7143098,2.35894589 M53.0415278,39.2865745 L27.9156331,39.2865745 C21.2717835,39.2865745 16.0589113,39.1101395 9.45873083,36.8249034 C3.01133233,34.5925003 -0.338442105,30.0622934 0.0270315789,24.0693597 C0.373497744,18.3934233 4.64958797,14.1022456 9.9988812,14.0339167 C10.2841143,13.7285109 10.7413774,12.5954711 11.0812271,11.7544154 C12.7260992,7.67883979 15.7883549,0.0925002653 26.7143098,0.0925002653 C42.4220992,0.0925002653 42.4220992,12.1833013 42.4220992,16.1565056 C42.4220992,16.2790095 42.4347308,16.351243 42.443994,16.3876037 C42.8029714,16.5454923 44.0970466,16.3595401 45.049588,16.2231263 C48.5765654,15.7190785 54.480806,14.8763146 59.4813474,20.5400493 C62.4769564,23.933434 63.1164752,28.3285692 61.2353323,32.5987602 C59.5277835,36.4741077 56.0818887,39.2865745 53.0415278,39.2865745" id="Fill-19" fill="#231916" mask="url(#mask-2)"></path>
                            </g>
                            <path d="M1.58748872,19.9866462 C2.94640602,21.3649379 3.32378947,19.5129804 4.68270677,18.1345666 C6.04174436,16.7562748 7.86766917,16.3736329 6.50875188,14.9952191 C5.14971429,13.6169273 2.94640602,13.6169273 1.58748872,14.9952191 C0.228571429,16.3736329 0.228571429,18.6082324 1.58748872,19.9866462" id="Fill-22" fill="#231916"></path>
                            <path d="M31.8337805,29.0177273 C31.8337805,29.0177273 18.7336301,26.3644912 23.9438556,14.6470589 C25.3642466,11.4529263 25.2944722,9.58962122 24.119615,7.37881485 L23.4477353,6.27432679 C28.4055699,8.4218069 27.1935398,12.2062525 26.2198256,15.2470111 C24.9163669,19.3175841 23.7884271,24.0520456 32.0278256,26.7966716 C39.8831038,25.3631066 40.183615,18.9580032 40.1422316,14.4321889 L42.3789835,14.4460987 C43.1478256,28.8930271 31.8337805,29.0177273 31.8337805,29.0177273" id="Fill-24" fill="#231916"></path>
                            <path d="M17.2816842,21.7829156 C15.0075188,21.7829156 13.1575338,19.4808414 13.1575338,16.6509263 C13.1575338,13.8211332 15.0075188,11.5186928 17.2816842,11.5186928 C19.5558496,11.5186928 21.4058346,13.8211332 21.4058346,16.6509263 C21.4058346,19.4808414 19.5558496,21.7829156 17.2816842,21.7829156" id="Fill-26" fill="#231916"></path>
                            <path d="M17.2816842,13.0522377 C15.9675188,13.0522377 14.8577444,14.7004286 14.8577444,16.6509751 C14.8577444,18.6016435 15.9675188,20.2493464 17.2816842,20.2493464 C18.5957293,20.2493464 19.7055038,18.6016435 19.7055038,16.6509751 C19.7055038,14.7004286 18.5957293,13.0522377 17.2816842,13.0522377" id="Fill-28" fill="#FEFEFE"></path>
                            <path d="M18.665612,12.9720366 C17.1790556,13.30453 16.0553263,14.8241162 16.0553263,16.6508164 C16.0553263,18.4776387 17.1790556,19.9972249 18.665612,20.3297183 C19.6028752,19.5872515 20.2337323,18.2198191 20.2337323,16.6508164 C20.2337323,15.0819358 19.6028752,13.7145034 18.665612,12.9720366" id="Fill-30" fill="#231916"></path>
                            <path d="M11.4685353,25.2479846 C11.1012571,24.8838891 10.5110617,24.8906 10.1512421,25.2640907 C8.28838496,27.1992631 3.3024,26.8182074 1.13253534,26.4493533 L1.42318195,28.401852 C1.83906165,28.4590775 2.3584,28.5203294 2.95521203,28.5658414 C5.55298647,28.7641172 9.48766316,28.6593056 11.484415,26.5839369 C11.8438737,26.2105682 11.8367759,25.6120801 11.4685353,25.2479846" id="Fill-32" fill="#231916"></path>
                            <path d="M23.4975038,30.159479 C19.217203,30.159479 15.7348571,33.6914737 15.7348571,38.0328 C15.7348571,42.3746143 19.217203,45.906731 23.4975038,45.906731 C27.7782857,45.906731 31.2606316,42.3746143 31.2606316,38.0328 C31.2606316,33.6914737 27.7782857,30.159479 23.4975038,30.159479" id="Fill-34" fill="#231916"></path>
                            <path d="M23.4975519,32.5725146 C20.5290105,32.5725146 18.1139729,35.0221061 18.1139729,38.0329708 C18.1139729,41.0442016 20.5290105,43.4936711 23.4975519,43.4936711 C26.4664541,43.4936711 28.8814917,41.0442016 28.8814917,38.0329708 C28.8814917,35.0221061 26.4664541,32.5725146 23.4975519,32.5725146" id="Fill-36" fill="#FEFEFE"></path>
                            <path d="M49.3974015,30.159479 C45.1171008,30.159479 41.6347549,33.6914737 41.6347549,38.0328 C41.6347549,42.3746143 45.1171008,45.906731 49.3974015,45.906731 C53.6780632,45.906731 57.1605293,42.3746143 57.1605293,38.0328 C57.1605293,33.6914737 53.6780632,30.159479 49.3974015,30.159479" id="Fill-38" fill="#231916"></path>
                            <path d="M49.3974617,32.5725146 C46.4289203,32.5725146 44.0138827,35.0221061 44.0138827,38.0329708 C44.0138827,41.0442016 46.4289203,43.4936711 49.3974617,43.4936711 C52.3663639,43.4936711 54.7815218,41.0442016 54.7815218,38.0329708 C54.7815218,35.0221061 52.3663639,32.5725146 49.3974617,32.5725146" id="Fill-40" fill="#FEFEFE"></path>
                        </g>
                    </g>
                </g>
            </g>
        </g>
    </g>
</svg>